<svg xmlns="http://www.w3.org/2000/svg" width="1296" height="719"><path d="M1295.8 376h.2v343H666v-.5l45.5-2.5q45.5-2.5 90-8.5t85-15q40.5-9 76.5-20t71-25.5q35-14.5 64-30t51.2-30.8q22.3-15.2 41.3-31.2 19-16 33.5-31.5t27-33.5q12.5-18 21-35t14-35q5.5-18 6.5-23t1.5-8.5l.5-3.5.5-4.5q.5-4.5.8-4.5zM0 547.5V376h.2q.3 0 .8 4.5l.5 4.5 4 18q4 18 12 37.5T37 478q11.5 18 25.5 34.5t29.3 30.7q15.2 14.3 38.2 31.3 23 17 51 33t60 30.5q32 14.5 72.5 28t80.5 23q40 9.5 83 16t82 9.5q39 3 55 3.5l16 .5v.5H0V547.5zM716.5 3.2L666 0h630v343h-.2q-.3 0-1.8-10.5t-6.5-28.5q-5-18-13-35t-20-35q-12-18-25.3-32.8-13.2-14.7-31.4-31-18.3-16.2-41.8-32.7-23.5-16.5-51.2-31.7-27.8-15.3-61.3-29.8T974 50q-36-11.5-76.5-21T812 13q-45-6.5-95.5-9.8zM0 171.5V0h630v.2q0 .3-16 .8t-55 3.5q-39 3-82 9.5t-83 16q-40 9.5-80.5 23T241 81q-32 14.5-60 30.5t-51 33q-23 17-38.2 31.3-15.3 14.2-29.3 30.7T37 241q-11.5 18-19.5 37.5T5.5 316l-4 18-.5 4.5-.5 4.5H0V171.5z" fill="#fff" fill-rule="evenodd" stroke="#fff" stroke-width=".5"/><path d="M674.8 215.8l.2-.3 6 1q6 1 23.8 11.7 17.7 10.8 21.7 15.3t16 30.5q12 26 18.7 44.8 6.8 18.7 8 18 1.3-.8-4.2-24.3t-5.8-24.5l-.2-1h2l5.5 17.8q5.5 17.7 12.3 20.4 6.7 2.8 6.4 3.6-.2.7 22.8 11.2t26.5 11.5q3.5 1 4.5 1.5l1 .5 4 .3 4 .2-.2-1.5-.3-1.5-.5-1.5-.5-1.5-.5-2q-.5-2-4-22l-3.5-20 .3-1 .2-1 1-.2 1-.3h2l1.5.5 1.5.5 8.8 4.7q8.7 4.8 13.7 13.3t6 11.5l1.5 4.5.5 1.5.5 2 .5 2 .5 1.5.5 1.5v-6q0-6-.5-10t-4-12q-3.5-8-7-11.5t-13.2-9.3q-9.8-5.7-16.3-6.7l-6.5-1-1.5.5-1.5.5-.2.3-.3.2-.3.2-.2.3-.2.3-.3.2v28l-.5-2.5-.5-2.5-.5-4q-.5-4 0-14l.5-10 .5-1 .5-1 .3-.2.2-.3 1-.5 1-.5 5.5 1q5.5 1 15 6.5t9.7 5.8l.3.2.3.2.2.3.2.3.3.2.3.2.2.3.2.3.3.2.3.2.2.3.2.3.3.2.3.2.2.3.2.3.3.2.3.2.2.3h2l-.2-.3-.3-.2-.5-1.5-.5-1.5-.5-1.5-.5-1.5-.5-1q-.5-1-3-7.5l-2.5-6.5-.5-1-.5-1-.5-1.5-.5-1.5-.3-.2-.2-.3v-.5h2v-2h.5l.5 1 .5 1 .5 1 .5 1 .5 1.5.5 1.5 6 14q6 14 9.5 20.5t4.5 11.5q1 5 1.7 19.8.8 14.7 11.6 19.4 10.7 4.8 13.4 11 2.8 6.3 8 13 5.3 6.8 5.8 13.8.5 7 3 11t3.2 8.2q.8 4.3-.4 5.6-1.3 1.2-.8 6.7t1.5 7.5q1 2 .7 8.2-.2 6.3-2.7 7-2.5.8-3 8-.5 7.3.3 8 .7.8 0 6-.8 5.3-3.3 5.6-2.5.2-4.3 5.7-1.7 5.5-2.2 10.5-.5 5-2.2 7.2-1.8 2.3-3.3 1.8-1.5-.5-5.3 3.8-3.7 4.2-4.2 7.2t-2.8 5.2q-2.2 2.3-6.7 2.8t-6.7 1.8q-2.3 1.2-3 3-.8 1.7-5.3 2.7-4.5 1-7-.5t-11.5-1.5q-9 0-12.5-1.5t-7.5-2.5q-4-1-17-9t-19.8-18.3q-6.7-10.2-7.7-14.2t-1-8q0-4-2.3-8.2-2.2-4.3-3.4-11.6-1.3-7.2.4-8.2 1.8-1 1.8-2t-1.5-1.2q-1.5-.3.5-.6l2-.2v-2l-1.5.2-1.5.3h-2q-2 0-10 1.3-8 1.2-8.2 2.7-.3 1.5-5 5.3-4.8 3.7-9 11-4.3 7.2-9 10.4-4.8 3.3-12.3 4.3-7.5 1-12.5-4t-8-6.5l-3-1.5-1-.5-1-.5-1-.5-1-.5-1-.3-1-.2-.2 2-.3 2-.5 1-.5 1-.5 1-.5 1 .7 4.8q.8 4.7 3.6 5 2.7.2 1.4 6.4-1.2 6.3-3.4 11.6-2.3 5.2-2.3 9.7 0 4.5-4.5 10t-7.8 10.3q-3.2 4.7-8.2 8.2-5 3.5-6 4l-1 .5-.2.3-.3.2-.3.2-.2.3.2.3.3.2.3.2.2.3 4.8 4.7q4.7 4.8 7.7 12.3 3 7.5 2.5 19.5t-4 19q-3.5 7-9.8 11.2-6.2 4.3-8.7 5.3-2.5 1-4.5 1.5l-2 .5-.2.3-.3.2-.3.2-.2.3.2.3.3.2.3.2.2.3.2.3.3.2 15 23.5q15 23.5 15.3 23.7l.2.3.2.3.3.2.5 1 .5 1 .3.2.2.3.2.3.3.2.5 1 .5 1 .3.2.2.3h-21q-21 0-34.2-23.3L621.5 630l-.5-1-.5-1-.3-.2-.2-.3-.2-.3-.3-.2-.5-1-.5-1-.5-1-.5-1-.5 14q-.5 14-.8 26.5L616 676l-17.5-.2-17.5-.3-.2-.3-.3-.2v-1.5q0-1.5.7-66.3.8-64.7-2.2-64.7t-4.2-1.7q-1.3-1.8-1.8-5.3t-3-7.5q-2.5-4-5.2-4.2-2.8-.3-5.6-6-2.7-5.8-.4-6.3 2.2-.5 1-4.5-1.3-4-4-4.5-2.8-.5-3-5.5-.3-5 .7-7t1.5-5.5q.5-3.5-1.2-4.7-1.8-1.3-1.6-5.6.3-4.2 2.3-7.2 2-3 2.5-9.5t2.2-8q1.8-1.5 4.3-4.7 2.5-3.3 4.7-8.6l2.3-5.2.3-.2.2-.3 1-.5 1-.5.2-.3.3-.2.3-.2.2-.3.2-.3.3-.2.3-.2.2-.3h-5l-1 .5q-1 .5-5 1.5t-11.5-.7q-7.5-1.8-8.5 0-1 1.7-8 5.2t-7.8 7.8q-.7 4.2-3.2 8.2-2.5 4-3.5 7t.5 5q1.5 2-.5 7t-6.7 9q-4.8 4-5.6 7-.7 3-4.7 6t-14.7 9.2q-10.8 6.3-14.3 6.8t-7.5 2.5q-4 2-12.5 2.5t-10 1.5q-1.5 1-7.5 1.5t-7-1.2q-1-1.8-9-2.6-8-.7-10.5-2.2-2.5-1.5-2.7-3.2-.3-1.8-4-5-3.8-3.3-6.3-3.3t-5.3-2.7q-2.7-2.8-2.2-5.8t-2.2-6.8q-2.8-3.7-5.8-4.2t-4.2-3.2q-1.3-2.8-.3-5.8t-.3-8.5q-1.2-5.5-4.7-6t-3.7-5.5q-.3-5 .7-6.5t1.5-6q.5-4.5-1.2-5.7-1.8-1.3-1.6-5 .3-3.8 2.8-7.8t2.5-10q0-6 5.3-12.2 5.2-6.3 7.2-11.6 2-5.2 4.2-6.2 2.3-1 11-4.8 8.8-3.7 20.3-6.7l11.5-3 .2-.3.3-.2.3-.2.2-.3 1-.5 1-.5 1.5-.5 1.5-.5.2-.3.3-.2v-2l-.5-1-.5-1-.3-.2-.2-.3h-3l-2 .5-2 .5-1.5.5q-1.5.5-12 3.5l-10.5 3-2 .5-2 .5-2 .3-2 .2v-2l1-.2 1-.3 1-.5 1-.5 1.5-.5 1.5-.5 92.5-28.5q92.5-28.5 106.7-33.2 14.3-4.8 15.3-6.3t1-16.5q0-15 .5-18l.5-3 .5-3 .5-3 .5 19q.5 19 1.8 21.2 1.2 2.3 2.7 2.8 1.5.5 6.5 1l5 .5h6l.2-.3.3-.2v-2l-.5-1.5q-.5-1.5-2-8.5t-.8-19.5q.8-12.5-6.2-15.7-7-3.3-12-4.3t-26 5.5l-21 6.5-1.5.5-1.5.5-1.5.3-1.5.2-1-.2-1-.3v-.5h.5l.3-.2.2-.3 1.5-.5 1.5-.5 1.5-.5 1.5-.5 1.5-.3q1.5-.2 2.3-4.7.7-4.5 3-7.3 2.2-2.7 5.2-3 3-.2 3.2-6.7l.3-6.5.3-.5.2-.5h2l-.2.5-.3.5v17l.3-.2.2-.3 1.5-.5 1.5-.5 16.5-5q16.5-5 29.5-5t16 2q3 2 4 2.5l1 .5h4l.2-.3.3-.2.5-6q.5-6 2-8.5l1.5-2.5.3-.2zm18 154.2h.4q.3 0 1.3-7t3.5-14q2.5-7 3.2-10.8.8-3.7 1.8-6.4l1-2.8-.5-.2q-.5-.3 0-.6l.5-.2.2-1 .3-1 .5-1 .5-1 .3-.2.2-.3.2-.3.3-.2.5-1 .5-1 .3-.2.2-.3 5.5-3.5q5.5-3.5 10-3t7.7 2.8q3.3 2.2 7.8 11.2t6 17.5q1.5 8.5 1 22.5t-4 25.5q-3.5 11.5-7.8 18.3-4.2 6.7-8.2 9.2-4 2.5-10 2t-10.2-4.2q-4.3-3.8-4-5 .2-1.3-.6-2-.7-.8-3.2-6.3t-2.2-6.7q.2-1.3-.3-6-.5-4.8-1.5-4.8t-1.2-9q-.3-9 0-9zm84.4-43.2q-.2-.3 0-.6.3-.2.3.3t-.3.3zm68 48l.3.2.3.2.2.3 1 .5 1 .5.2.3.3.2.3.2.2.3.2.3.3.2.3.2.2.3.2.3.3.2.3.2.2.3.2.3.3.2v1l-.3.2-.2.3-.2.3-.3.2-.3-.2-.2-.3-.2-.3-.3-.2-.3-.2-.2-.3-1-.5-1-.5-.2-.3-.3-.2-.3-.2-.2-.3-1-.5-1-.5-.2-.3q-.3-.2-12-6.4Q820 364.5 796 356l-24-8.5-1.2-.7q-1.3-.8-2-3.8-.8-3 24.2 6.8 25 9.7 38.5 17.2t13.7 7.8zm-360 13l-.2-.3-.2-.3-.3-.2-.3-.2-.2-.3-.2-.3-.3-.2-.3-.2-.2-.3-.2-.3-.3-.2-.3-.2-.2-.3-.2-.3-.3-.2-.3-.2-.2-.3-.2-.3-.3-.2-.3-.2-.2-.3.2-.3.3-.2.3-.2.2-.3 1.5-.5 1.5-.5 42-11.3q42-11.2 43 0 1 11.3-37 20.6-38 9.2-42.2 3.7-4.3-5.5-4.6-5.7zm396.3 96.7H879l1.5-.5 1.5-.5-3-.5q-3-.5-3.2-.8-.3-.2-1.8-5.7t-3-8q-1.5-2.5-.8-3.3.8-.7 1.3-1.4.5-.8 3.5-2l3-1.3 2-.5 2-.5-3.5-.5-3.5-.5-.2-.3-.3-.2-.3-.2-.2-.3-.2-.3-.3-.2-.3-1q-.2-1 2.3-1.2 2.5-.3-.5-.6l-3-.2v-2.5q0-2.5 1.5-2.5t1.3-1q-.3-1-1.6-1.5-1.2-.5-1-4 .3-3.5 2.3-9 2-5.5 4.7-6.7l2.8-1.3-.2-.3-.3-.2v-2l.3-.2.2-.3-3.5-1q-3.5-1-2.5-1.5t0-.8q-1-.2.5-5.4 1.5-5.3 4.5-8.3 3-3 8-4.3 5-1.2 5-.2t1.8 1.5q1.7.5 4.2 6t3.5 18q1 12.5-.5 22t-2 9q-.5-.5-5.5 10.5t-8.3 13.8q-3.2 2.7-5.7 2.7zm-105-67.5l-2.5-.5-.2-.3-.3-.2-.7-4.5q-.8-4.5 6.2-2.7 7 1.7 6.8 5.4-.3 3.8-3.6 3.6-3.2-.3-5.7-.8z" fill="#060808" fill-rule="evenodd" stroke="#060808" stroke-width=".5"/><path d="M630 .2V0h36l50.5 3.2Q767 6.5 812 13q45 6.5 85.5 16T974 50q36 11.5 69.5 26t61.3 29.8q27.7 15.2 51.2 31.7 23.5 16.5 41.8 32.7 18.2 16.3 31.4 31 13.3 14.8 25.3 32.8 12 18 20 35t13 35q5 18 6.5 28.5t1.8 10.5h.2v33h-.2q-.3 0-.8 4.5l-.5 4.5-.5 3.5q-.5 3.5-1.5 8.5t-6.5 23q-5.5 18-14 35t-21 35q-12.5 18-27 33.5t-33.5 31.5q-19 16-41.3 31.2-22.2 15.3-51.2 30.8-29 15.5-64 30t-71 25.5q-36 11-76.5 20t-85 15q-44.5 6-90 8.5l-45.5 2.5v.5h-36v-.5l-16-.5q-16-.5-55-3.5t-82-9.5q-43-6.5-83-16t-80.5-23Q273 652.5 241 638t-60-30.5q-28-16-51-33t-38.2-31.3Q76.5 529 62.5 512.5T37 478q-11.5-18-19.5-37.5T5.5 403l-4-18-.5-4.5Q.5 376 .2 376H0v-33h.5l.5-4.5.5-4.5 4-18q4-18 12-37.5T37 241q11.5-18 25.5-34.5t29.3-30.7q15.2-14.3 38.2-31.3 23-17 51-33T241 81q32-14.5 72.5-28T394 30q40-9.5 83-16t82-9.5q39-3 55-3.5t16-.8zm18 16.3q51 0 80 2t70.5 7.5q41.5 5.5 81 14t76 19.5q36.5 11 71 25t60 27.5q25.5 13.5 50 29.5t44.3 32.7q19.7 16.8 35.7 34.8 16 18 27.5 35.5t19.5 36q8 18.5 12 36.5t4.5 38q.5 20-2 35.5t-8 31.5q-5.5 16-14.5 33t-22 34.5q-13 17.5-26.7 31.3-13.8 13.7-31 28-17.3 14.2-42 30.4-24.8 16.3-57.8 32.8-33 16.5-64.5 28.5t-70 23q-38.5 11-79.5 19t-85 13q-44 5-91 6.5t-91.5-.5q-44.5-2-91.5-8T416.5 679q-39.5-8.5-76-19.5t-71-25q-34.5-14-60-27.5t-50-29.5q-24.5-16-44.3-32.7Q95.5 528 79.5 510q-16-18-27.5-35.5t-19.5-36q-8-18.5-12-36.5T16 364.5q-.5-19.5 2-35.5t9-34.5q6.5-18.5 17-37T69 221q14.5-18 32.2-34.2 17.8-16.3 37-30.6 19.3-14.2 44-29 24.8-14.7 57.3-29.7t67-27q34.5-12 74-22t81-17q41.5-7 88.5-11t98-4z" fill="#060808" fill-rule="evenodd" stroke="#060808" stroke-width=".5"/><path d="M605.5 139.8l-11.5.2v6.5q0 6.5 6 8.3 6 1.7 11 4.2t5.5 2.8l.5.2v.2q0 .3.5.6l.5.2-.2 1-.3 1H616l-.5.2-1 .6-.5.2-.5-.2q-.5-.3-.5-.6v-.2l-.2-.5q-.3-.5-4.6-2.7-4.2-2.3-13.7-2.8T539 174.5q-46 16-52.5 20t-10.7 9.7q-4.3 5.8-4.8 15.3t1.5 27.5l2 18 .5 2.5.5 2.5v-14q0-14-.5-25t1.2-18.2l1.8-7.3.2-.3.3-.2.3-.2.2-.3.2-.3.3-.2.3-.2.2-.3.2-.3.3-.2.3-.2.2-.3.2-.3.3-.2.3-.2.2-.3.2-.3.3-.2.3-.2.2-.3 1-.3 1-.2 1 .2 1 .3-.2.3-.3.2-.3.2-.2.3-.2.3-.3.2-.3.2-.2.3-.2.3-.3.2-.3.2-.2.3-.2.3-.3.2-.5 1-.5 1-.5 1-.5 1-.5 1.5-.5 1.5-.3 1.5-.2 1.5h2v2h2l-.2 1-.3 1v5l.3-.2.2-.3.2-.3.3-.2.5-1 .5-1 .5-1 .5-1 .3-.2.2-.3.2-.3.3-.2 1.3-1.8q1.2-1.7 1.4-2l.3-.2.3-.2.2-.3 1-.5 1-.5 1-.5 1-.5h4l-1 .5-1 .5-.2.3-.3.2-.3.2-.2.3v.5l-.2.5-.3.5h-.5l-.5-.2q-.5-.3-1 .4l-.5.8h.5l.7.8q.8.7-.2 1.2l-1 .5 1.5 1.7q1.5 1.8 3 2l1.5.3.2.3.3.2.3.2.2.3.2.3.3.2v1l-.3.2-.2.3-1.5.5-1.5.5-3.5.3q-3.5.2-3.3 2.2.3 2-1 3l-1.2 1-1.8-1.5q-1.7-1.5-1.7 10t.5 26.5l.5 15 .3.2.2.3.2.3.3.2.3-.2.2-.3 1.5-.5 1.5-.5 1-.3 1-.2.2-5q.3-5 .8-6l.5-1 .5-1 .5-1 .3-.2.2-.3.2-.3.3-.2.3-.2.2-.3 1-.5 1-.5h4l-1 .5-1 .5-1 .5-1 .5-.2.3-.3.2-.3.2-.2.3-.2.3-.3.2-.5 1-.5 1-.3.2-.2.3.2.3q.3.2.6.7l.2.5.2 4q.3 4 .6 4.5l.2.5-.5.2q-.5.3-44 15.8L409 312.5l-1 .5-1 .5-1 .5-1 .5h-3l1-.5 1-.5 1-.5 1-.5 1-.5 1-.5 1-.5 1-.5 15.5-6q15.5-6 17-6.5l1.5-.5 1.5-.5 1.5-.5 1-.5 1-.5 1.5-.5 1.5-.5-16-.5q-16-.5-17-.8l-1-.2.8-13q.7-13 4.4-16.8 3.8-3.7 24-12.4Q467.5 242 468 224t1-19l.5-1 .5-1 .5-1 .3-1 .2-1-2 .2-2 .3-3.5.5q-3.5.5-9 1.2l-5.5.8-.2-3.5q-.3-3.5-9.6-69L430 65l38-5.2q38-5.3 42.5-5.6l4.5-.2 1.8 14q1.7 14 1.7 14.5v.5l-.3.2-.2.3-2.5.5q-2.5.5-23.5 3.2L471 90l1.2 9q1.3 9 1.6 12l.2 3 20-2.8q20-2.7 22.5-2.7h2.5l.2.3.3.2 1.5 10.5q1.5 10.5 1.8 14.5l.2 4-3.5.2q-3.5.3-22 3L479 144l1.2 10.5q1.3 10.5 1.6 11.5l.2 1 23.8-3q23.7-3 24.2.5t1 5.5l.5 2 .3-.2.2-.3 1.5-.5q1.5-.5 13-4.5t10.3-60.7L555.5 49l.3-.2.2-.3h36q36 0 43.2 3.3 7.3 3.2 12.3 8.2 5 5 8.5 14t3 22.5q-.5 13.5-4.5 21.5t-10.7 12.8q-6.8 4.7-16.8 6.7t-21.5 2.3zm-13.3-48.3L592 77l11.5.8q11.5.7 14.3 2.4 2.7 1.8 4.2 5.8t.5 10q-1 6-4.7 8.8-3.8 2.7-9.8 3.7-6 1-10.5 1.3l-4.5.2-.2-2q-.3-2-.6-16.5zM490 217q0-1 1-1h1v1q0 1-1 1t-1-1zm-62.5 73l-1.5.5-1 .5-1 .5-1.5.3-1.5.2.8-11q.7-11 4.4-14.8 3.8-3.7 20.8-11.2 17-7.5 17.8-7.2.7.2-2.3 3.2t-4.5 10q-1.5 7-1.8 12.5-.2 5.5-13.7 10.7-13.5 5.3-15 5.8zm48.7-17.2l-.2-.3.2-.3q.3-.2.3.3v.5l-.3-.2zM773.8 54l.2-3 18.5 3q18.5 3 39.7 45.5 21.3 42.5 22.3 45.5l1.5 4.5.5 1.5.5 1.5.5 1.5.5 1.5.5 1.5.5 1 .5 1 3.5-27.5q3.5-27.5 6-43t2.8-18.5l.2-3 16 2.2q16 2.3 18 2.6l2 .2-10.2 66.5Q887.5 205 887.2 207l-.2 2-3.5-.2q-3.5-.3-18-2.8t-32.3-36.8Q815.5 135 810 122l-5.5-13-.5-1.5-.5-1.5-.5-1.5-.5-1.5-.3.2-.2.3-.2.3-.3.2-4 30q-4 30-5.5 39.5t-2 13l-.5 3.5-.3 1-.2 1 12 .8q12 .7 13.8 4.4 1.7 3.8 3 7 1.2 3.3 6.4 8.6 5.3 5.2 14.8 21.2t12.5 22.5q3 6.5 3.5 8l.5 1.5.5 1 .5 1 .3 1.5.2 1.5v2h-2l-.2-.5-.3-.5-.5-1-.5-1-.5-1.5-.5-1.5-.5-1q-.5-1-5-10.5T834 233l-8.5-13-.5-1-.5-1-.3-.2-.2-.3-.2-.3-.3-.2-.3-.2-.2-.3-.2-.3-.3-.2-.3-.2-.2-.3-.2-.3-.3-.2-.3-.2-.2-.3-.2-.3-.3-.2-.5 1-.5 1-.5 1.5-.5 1.5-.3.2-.2.3.2.3.3.2.3.2.2.3.2.3.3.2.3.2.2.3.2.3.3.2.3.2.2.3.2.3.3.2 8.5 12q8.5 12 12 18.5t4 8l.5 1.5.5 2 .5 2v4l-.3.2-.2.3h-2l-1-.5-1-.5-1-.5-1-.5-.2-.3-.3-.2-.3-.2q-.2-.3-15.2-7.6-15-7.2-21.2-21.2l-6.3-14-.3-.2-.2-.3.2-.3.3-.2.3-.2.2-.3h-3l-3.5.5-3.5.5-1 .5-1 .5-.2.3-.3.2v2l.5 1 .5 1 .3.2.2.3.2.3.3.2.5 1 .5 1 3.5 4.5q3.5 4.5 4.5 3t2 0q1 1.5 1.5 3.5l.5 2 .5 1 .5 1 .5 1.5.5 1.5.5 1.5.5 1.5.3.2.2.3h-2l-1-.5-1-.5-.2-.3-.3-.2-.3-1.5-.2-1.5-2-.2q-2-.3-4-5-2-4.8-5.5-6.6l-3.5-1.7-.2-.3-.3-.2-.3-.2-.2-.3-1-.5-1-.5-1-.3-1-.2.2 1 .3 1v7l-.3.2-.2.3-.2.3-.3.2-.3.2-.2.3h-2l-1-.5-1-.5-1.5-.5-1.5-.5-1-.5-1-.5-1.5-.5-1.5-.5-1-.3-1-.2-.2-1-.3-1-.5-1.5-.5-1.5-.5-1.5-.5-1.5-.3-1-.2-1v-2l2.5.2 2.5.3h4l-.2-.3-.3-.2-.3-.2-.2-.3-.2-.3-.3-.2-.3-.2-.2-.3.2-.3.3-.2v-1q0-1-2.7-5.5L763 216l-.2-1q-.3-1-1.8-9t-1.8-7q-.2 1-1.7.8l-1.5-.3v-.5l.8-.5q.7-.5 0-1.3-.8-.7 1.2-1.2t2.2-.8l.3-.2v-.5q0-.5-1.3-1-1.2-.5-1.2-1.5v-1h.2q.3 0-1-.5l-1.2-.5-.2-.5q-.3-.5-1 0l-.8.5-.5-.2q-.5-.3-.5-.6v-.2l.2-3 .3-3 10-63q10-63 10.3-66zM340 487l1 .5 1 .5 1 .5 1 .5 1 .5 1 .5 1 .5h2l-.2-.3-.3-.2-.3-.2-.2-.3-.2-.3-.3-.2-.5-1-1-2-.5-1-.5-1-.5-1-.3-1-.2-1h2l.2 1 .3 1 .5 1 .5 1 .5 1 .5 1 2.3 3.2q2.2 3.3 3.4 4 1.3.8 1.8 3.3t1.8 3.7q1.2 1.3 1.4 1.6l.3.2.3 1 .2 1h4v4l-1-.2-1-.3-.2-.3-.3-.2-.3-.2-.2-.3-.2-.3-.3-.2-.3-.2q-.2-.3-1.2-1.3t-1.8-.3q-.7.8-3 .8H352l-18.2 59.5q-18.3 59.5-18.8 61l-.5 1.5-.3.2-.2.3h-1l-1-.5q-1-.5-14.5-7t-13.7-8.8q-.3-2.2 11.7-37.7l12-35.5.5-1 .5-1 .5-1.5.5-1.5.3-1 .2-1h-2l-.2 1-.3 1-.3.2-.2.3-.2.3-.3.2-.3.2-.2.3-.2.3-.3.2-.3.2-.2.3-.2.3-.3.2-.3.2-.2.3-.2.3-.3.2-.5 1q-.5 1-26.8 29.8-26.2 28.7-37.7 23.4-11.5-5.2-4.3-46.7l7.3-41.5.5-2 .5-2v-2l-.3.2-.2.3-.2.3-.3.2-.5 1-.5 1-.3.2-.2.3-.2.3-.3.2-.5 1-.5 1-.3.2-.2.3-.2.3-.3.2-21.3 32.2Q195 569.5 190.5 568q-4.5-1.5-14-6t-10.5-5l-1-.5-1-.3-1-.2.2-1 .3-1 .3-.2.2-.3.2-.3.3-.2 38.7-56.5Q242 440 258.8 448q16.7 8 13.7 29t-7 45q-4 24 17.5 0t29.8-33.2q8.2-9.3 14.2-7.3 6 2 9 3.5l4 2zm15.5 15.2q-1.5-.7 0-1 1.5-.2 1.5.8t-1.5.2zM1073 152.5l4.5 10.5.5 2 .5 2v1l-.3.2-.2.3-7.5.5q-7.5.5-18 .8-10.5.2-12.3-4.8-1.7-5-5.7-10t-10.7-8.8q-6.8-3.7-17.3-3.7t-17.3 4.3q-6.7 4.2-12.2 12.7-5.5 8.5-8 19t-1.5 17.5q1 7 5.3 13.2 4.2 6.3 13.2 10.8 9 4.5 17 5t15-2.5l7-3 .2-.3.3-.2.3-.2.2-.3.2-.3.3-.2.3-.2.2-.3.2-.3.3-.2.5-1 .5-1 .3-.2.2-.3.2-.3.3-.2v-2l-.3-.2-.2-.3-1.5-.5-1.5-.5-1-.5q-1-.5-15-6.2l-14-5.8 5.2-12.5q5.3-12.5 5.6-13.5l.2-1 33 13.8q33 13.7 34 14.2l1 .5.2.3.3.2v1l-.5 1.5q-.5 1.5-2 5t-9 15.5q-7.5 12-14 17.5t-16.2 9.7q-9.8 4.3-21.3 4.8t-18.5-1q-7-1.5-19-7t-18-10.5q-6-5-11.2-11.7-5.3-6.8-9.3-16.8-4-10-4-25.5t3-24.5q3-9 9.5-18.5t14.2-15.7q7.8-6.3 18.3-10.3 10.5-4 25-4t26 4q11.5 4 19.3 9.3 7.7 5.2 14.2 12.2 6.5 7 11 17.5zM492.2 667l-.2 1-1.5-.2q-1.5-.3-14.5-2.8t-12.8-7.8l.3-5.2v-4l-.3.2-.2.3-.2.3-.3.2-.3.2-.2.3-.2.3-.3.2-.3.2-.2.3-.2.3-.3.2-.3.2-.2.3-1 .5q-1 .5-6.5 3.5t-15 3.5q-9.5.5-17-2.5T408 649q-5-4.5-8.8-12.8-3.7-8.2-4.2-18.7t.5-16q1-5.5 4.5-14t8.8-14.7q5.2-6.3 12.2-9.8 7-3.5 18.5-3.5t19 3.5q7.5 3.5 10.7 7.8l3.3 4.2.3.2.2.3.2.3.3.2.5 1 .5 1 .5 1 .5 1 .3.2.2.3.2.3.3.2.5-4 .5-4 5.3-27.5q5.2-27.5 21-24.5 15.7 3 2.2 74t-13.8 72zM444 588q2-.5 9.5.5t12.3 5.7q4.7 4.8 5.2 13.8t-2 14.5q-2.5 5.5-6.2 8.3-3.8 2.7-11.3 3.2-7.5.5-12-1.5t-7.3-5.7q-2.7-3.8-3.2-11.3-.5-7.5 2-14t6.8-9.7q4.2-3.3 6.2-3.8z" fill="#060808" fill-rule="evenodd" stroke="#060808" stroke-width=".5"/><path d="M350.5 118.8l-1.5.2 2.2 9q2.3 9 2.8 11l.5 2 .3.2.2.3 21-5.5q21-5.5 22-5.8l1-.2 3.8 13.5q3.7 13.5 4 14.5l.2 1-1.5.2q-1.5.3-21.5 6l-20 5.8 2.2 9.5q2.3 9.5 2.6 11l.2 1.5 21.5-5.8q21.5-5.7 23.5-5.7h2l3.8 12.7q3.7 12.8 4 14.8l.2 2-1.5.2q-1.5.3-40.3 11.6L343.5 234l-.3-.2-.2-.3-.2-.3-.3-.2-.5-1.5q-.5-1.5-18.8-66.5L305 100l40.5-11.2Q386 77.5 390 92.2q4 14.8-17 20.6-21 5.7-22.5 6zM953 581.2l3 8.8-2 .2q-2 .3-33 9.3l-31 9-1.5.3-1.5.2.2 1.5.3 1.5.5 1.5.5 1.5.5 1 .5 1 .3.2.2.3.2.3.3.2 3.3 3.2q3.2 3.3 9.2 4.3 6 1 12.2-1.3 6.3-2.2 9.8-5.7 3.5-3.5 4.2-6.5.8-3 9.3-2.2 8.5.7 13 1.2l4.5.5 1 .3 1 .2-.2 1-.3 1-.5 2-.5 2-.5 1q-.5 1-3 5.5t-9.2 9.7q-6.8 5.3-17.3 9.3-10.5 4-24 4T881 644q-8-3.5-13.8-9.2-5.7-5.8-9.7-15.3-4-9.5-4.5-20t2-17.5q2.5-7 7.2-13.8 4.8-6.7 13.3-12.2 8.5-5.5 19-8t19-1.5q8.5 1 16.5 5.5t14 12.5q6 8 9 16.7zm-65 7.8l-2 .5-2 .3-2 .2.2-4.5.3-4.5 1.7-4q1.8-4 8.3-6.8 6.5-2.7 12-1.7 5.5 1 9.3 4.7 3.7 3.8 4 5.6.2 1.7-13.8 5.7t-16 4.5zm171.5-75l1 1 .3.2.2.3 6.5-.5q6.5-.5 16-3t18-2q8.5.5 13.3 3.8 4.7 3.2 8.2 10.2 3.5 7 3 15.5t-5 15.5q-4.5 7-12.8 13.2-8.2 6.3-17.7 10.3-9.5 4-19 5.3-9.5 1.2-12.3-7.8-2.7-9-3.2-11l-.5-2-.3-1.5-.2-1.5 10-.8q10-.7 18-4.2t9.8-4.8q1.7-1.2 2-1.4l.2-.3.2-.3.3-.2.5-1 .5-1 .5-1 .5-1v-4l-.5-1-.5-1-.3-.2-.2-.3-.2-.3-.3-.2-.3-.2-.2-.3h-5q-5 0-15.5 3t-19 3q-8.5 0-13-2.5t-8.3-8.2q-3.7-5.8-4.2-13.8t2-13.5q2.5-5.5 8.5-11.5t16.3-11.2q10.2-5.3 20.2-7.6 10-2.2 13 9.3t-2 11.7q-5 .3-10.5 1.8t-11.5 5.5q-6 4-6.8 7.3-.7 3.2.3 4.2zM238 266.2l-1-.2.2-1q.3-1 5.3-13.5l5-12.5.5-1 .5-1 .3.2.2.3.2.3.3.2 2.7 2.2q2.8 2.3 6.3 2.8t5 0l1.5-.5.2-.3.3-.2.3-.2.2-.3.2-.3.3-.2.3-.2.2-.3.2-.3.3-.2.5-1 .5-1v-2.5q0-2.5-.5-4.5t-22.2-48L224 137l17-7.8q17-7.7 39.8 39.6Q303.5 216 305 222t.5 14.5q-1 8.5-5.5 15.5t-10.8 11.2q-6.2 4.3-14.2 6.8-8 2.5-16 2t-14-3q-6-2.5-7-2.8z" fill="#060808" fill-rule="evenodd" stroke="#060808" stroke-width=".5"/><path d="M648 16.5q51 0 80 2t70.5 7.5q41.5 5.5 81 14t76 19.5q36.5 11 71 25t60 27.5q25.5 13.5 50 29.5t44.3 32.7q19.7 16.8 35.7 34.8 16 18 27.5 35.5t19.5 36q8 18.5 12 36.5t4.5 38q.5 20-2 35.5t-8 31.5q-5.5 16-14.5 33t-22 34.5q-13 17.5-26.7 31.3-13.8 13.7-31 28-17.3 14.2-42 30.4-24.8 16.3-57.8 32.8-33 16.5-64.5 28.5t-70 23q-38.5 11-79.5 19t-85 13q-44 5-91 6.5t-91.5-.5q-44.5-2-91.5-8T416.5 679q-39.5-8.5-76-19.5t-71-25q-34.5-14-60-27.5t-50-29.5q-24.5-16-44.3-32.7Q95.5 528 79.5 510q-16-18-27.5-35.5t-19.5-36q-8-18.5-12-36.5T16 364.5q-.5-19.5 2-35.5t9-34.5q6.5-18.5 17-37T69 221q14.5-18 32.2-34.2 17.8-16.3 37-30.6 19.3-14.2 44-29 24.8-14.7 57.3-29.7t67-27q34.5-12 74-22t81-17q41.5-7 88.5-11t98-4zm-42.5 123.3l-11.5.2v6.5q0 6.5 6 8.3 6 1.7 11 4.2t5.5 2.8l.5.2h.2q.3 0 .6.5l.2.5 1.5.2 1.5.3 1 .5 1 .5 17.5 8.5q17.5 8.5 22 7.5t11.7-4.3q7.3-3.2 8.8-65.7 1.5-62.5 1.8-62.7l.2-.3h7.5q7.5 0 19 .3l11.5.2-.5 59.8q-.5 59.7 11.7 68.4 12.3 8.8 12.6 9l.2.3 1 .5 1 .5.2.3.3.2.3.2.2.3 1 .5 1 .5.5.3.5.2.2-3 .3-3 10-63q10-63 10.3-66l.2-3 18.5 3q18.5 3 39.7 45.5 21.3 42.5 22.3 45.5l1.5 4.5.5 1.5.5 1.5.5 1.5.5 1.5.5 1.5.5 1 .5 1 3.5-27.5q3.5-27.5 6-43t2.8-18.5l.2-3 16 2.2q16 2.3 18 2.6l2 .2-10.2 66.5Q887.5 205 887.2 207l-.2 2-3.5-.2q-3.5-.3-18-2.8t-32.3-36.8Q815.5 135 810 122l-5.5-13-.5-1.5-.5-1.5-.5-1.5-.5-1.5-.3.2-.2.3-.2.3-.3.2-4 30q-4 30-5.5 39.5t-2 13l-.5 3.5-.3 1-.2 1 12 .8q12 .7 13.8 4.4 1.7 3.8 3 7 1.2 3.3 6.4 8.6 5.3 5.2 14.8 21.2t12.5 22.5q3 6.5 3.5 8l.5 1.5.5 1 .5 1 .3 1.5.2 1.5h.5l.5 1 .5 1 .5 1 .5 1 .5 1.5.5 1.5 6 14q6 14 9.5 20.5t4.5 11.5q1 5 1.7 19.8.8 14.7 11.6 19.4 10.7 4.8 13.4 11 2.8 6.3 8 13 5.3 6.8 5.8 13.8.5 7 3 11t3.2 8.2q.8 4.3-.4 5.6-1.3 1.2-.8 6.7t1.5 7.5q1 2 .7 8.2-.2 6.3-2.7 7-2.5.8-3 8-.5 7.3.3 8 .7.8 0 6-.8 5.3-3.3 5.6-2.5.2-4.3 5.7-1.7 5.5-2.2 10.5-.5 5-2.2 7.2-1.8 2.3-3.3 1.8-1.5-.5-5.3 3.8-3.7 4.2-4.2 7.2t-2.8 5.2q-2.2 2.3-6.7 2.8t-6.7 1.8q-2.3 1.2-3 3-.8 1.7-5.3 2.7-4.5 1-7-.5t-11.5-1.5q-9 0-12.5-1.5t-7.5-2.5q-4-1-17-9t-19.8-18.3q-6.7-10.2-7.7-14.2t-1-8q0-4-2.3-8.2-2.2-4.3-3.4-11.6-1.3-7.2.4-8.2 1.8-1 1.8-2t-1.5-1.2q-1.5-.3.5-.6l2-.2v-2l-1.5.2-1.5.3h-2q-2 0-10 1.3-8 1.2-8.2 2.7-.3 1.5-5 5.3-4.8 3.7-9 11-4.3 7.2-9 10.4-4.8 3.3-12.3 4.3-7.5 1-12.5-4t-8-6.5l-3-1.5-1-.5-1-.5-1-.5-1-.5-1-.3-1-.2-.2 2-.3 2-.5 1-.5 1-.5 1-.5 1 .7 4.8q.8 4.7 3.6 5 2.7.2 1.4 6.4-1.2 6.3-3.4 11.6-2.3 5.2-2.3 9.7 0 4.5-4.5 10t-7.8 10.3q-3.2 4.7-8.2 8.2-5 3.5-6 4l-1 .5-.2.3-.3.2-.3.2-.2.3.2.3.3.2.3.2.2.3 4.8 4.7q4.7 4.8 7.7 12.3 3 7.5 2.5 19.5t-4 19q-3.5 7-9.8 11.2-6.2 4.3-8.7 5.3-2.5 1-4.5 1.5l-2 .5-.2.3-.3.2-.3.2-.2.3.2.3.3.2.3.2.2.3.2.3.3.2 15 23.5q15 23.5 15.3 23.7l.2.3.2.3.3.2.5 1 .5 1 .3.2.2.3.2.3.3.2.5 1 .5 1 .3.2.2.3h-21q-21 0-34.2-23.3L621.5 630l-.5-1-.5-1-.3-.2-.2-.3-.2-.3-.3-.2-.5-1-.5-1-.5-1-.5-1-.5 14q-.5 14-.8 26.5L616 676l-17.5-.2-17.5-.3-.2-.3-.3-.2v-1.5q0-1.5.7-66.3.8-64.7-2.2-64.7t-4.2-1.7q-1.3-1.8-1.8-5.3t-3-7.5q-2.5-4-5.2-4.2-2.8-.3-5.6-6-2.7-5.8-.4-6.3 2.2-.5 1-4.5-1.3-4-4-4.5-2.8-.5-3-5.5-.3-5 .7-7t1.5-5.5q.5-3.5-1.2-4.7-1.8-1.3-1.6-5.6.3-4.2 2.3-7.2 2-3 2.5-9.5t2.2-8q1.8-1.5 4.3-4.7 2.5-3.3 4.7-8.6l2.3-5.2.3-.2.2-.3 1-.5 1-.5.2-.3.3-.2.3-.2.2-.3.2-.3.3-.2.3-.2.2-.3h-5l-1 .5q-1 .5-5 1.5t-11.5-.7q-7.5-1.8-8.5 0-1 1.7-8 5.2t-7.8 7.8q-.7 4.2-3.2 8.2-2.5 4-3.5 7t.5 5q1.5 2-.5 7t-6.7 9q-4.8 4-5.6 7-.7 3-4.7 6t-14.7 9.2q-10.8 6.3-14.3 6.8t-7.5 2.5q-4 2-12.5 2.5t-10 1.5q-1.5 1-7.5 1.5t-7-1.2q-1-1.8-9-2.6-8-.7-10.5-2.2-2.5-1.5-2.7-3.2-.3-1.8-4-5-3.8-3.3-6.3-3.3t-5.3-2.7q-2.7-2.8-2.2-5.8t-2.2-6.8q-2.8-3.7-5.8-4.2t-4.2-3.2q-1.3-2.8-.3-5.8t-.3-8.5q-1.2-5.5-4.7-6t-3.7-5.5q-.3-5 .7-6.5t1.5-6q.5-4.5-1.2-5.7-1.8-1.3-1.6-5 .3-3.8 2.8-7.8t2.5-10q0-6 5.3-12.2 5.2-6.3 7.2-11.6 2-5.2 4.2-6.2 2.3-1 11-4.8 8.8-3.7 20.3-6.7l11.5-3 .2-.3.3-.2.3-.2.2-.3 1-.5 1-.5 1.5-.5 1.5-.5.2-.3.3-.2v-2l-.5-1-.5-1-.3-.2-.2-.3h-3l-2 .5-2 .5-1.5.5q-1.5.5-12 3.5l-10.5 3-2 .5-2 .5-2 .3-2 .2v-2l1-.2 1-.3 1-.5 1-.5 1.5-.5 1.5-.5 92.5-28.5q92.5-28.5 106.7-33.2 14.3-4.8 15.3-6.3t1-16.5q0-15 .5-18l.5-3 .5-3 .5-3 .5 19q.5 19 1.8 21.2 1.2 2.3 2.7 2.8 1.5.5 6.5 1l5 .5h6l.2-.3.3-.2v-2l-.5-1.5q-.5-1.5-2-8.5t-.8-19.5q.8-12.5-6.2-15.7-7-3.3-12-4.3t-26 5.5l-21 6.5-1.5.5-1.5.5-1.5.3-1.5.2v.2q0 .3-38 13L497 281l-.5.2q-.5.3-44 15.8L409 312.5l-1 .5-1 .5-1 .5-1 .5h-3l1-.5 1-.5 1-.5 1-.5 1-.5 1-.5 1-.5 1-.5 15.5-6q15.5-6 17-6.5l1.5-.5 1.5-.5 1.5-.5 1-.5 1-.5 1.5-.5 1.5-.5-16-.5q-16-.5-17-.8l-1-.2.8-13q.7-13 4.4-16.8 3.8-3.7 24-12.4Q467.5 242 468 224t1-19l.5-1 .5-1 .5-1 .3-1 .2-1-2 .2-2 .3-3.5.5q-3.5.5-9 1.2l-5.5.8-.2-3.5q-.3-3.5-9.6-69L430 65l38-5.2q38-5.3 42.5-5.6l4.5-.2 1.8 14q1.7 14 1.7 14.5v.5l-.3.2-.2.3-2.5.5q-2.5.5-23.5 3.2L471 90l1.2 9q1.3 9 1.6 12l.2 3 20-2.8q20-2.7 22.5-2.7h2.5l.2.3.3.2 1.5 10.5q1.5 10.5 1.8 14.5l.2 4-3.5.2q-3.5.3-22 3L479 144l1.2 10.5q1.3 10.5 1.6 11.5l.2 1 23.8-3q23.7-3 24.2.5t1 5.5l.5 2 .3-.2.2-.3 1.5-.5q1.5-.5 13-4.5t10.3-60.7L555.5 49l.3-.2.2-.3h36q36 0 43.2 3.3 7.3 3.2 12.3 8.2 5 5 8.5 14t3 22.5q-.5 13.5-4.5 21.5t-10.7 12.8q-6.8 4.7-16.8 6.7t-21.5 2.3zm-255-21l-1.5.2 2.2 9q2.3 9 2.8 11l.5 2 .3.2.2.3 21-5.5q21-5.5 22-5.8l1-.2 3.8 13.5q3.7 13.5 4 14.5l.2 1-1.5.2q-1.5.3-21.5 6l-20 5.8 2.2 9.5q2.3 9.5 2.6 11l.2 1.5 21.5-5.8q21.5-5.7 23.5-5.7h2l3.8 12.7q3.7 12.8 4 14.8l.2 2-1.5.2q-1.5.3-40.3 11.6L343.5 234l-.3-.2-.2-.3-.2-.3-.3-.2-.5-1.5q-.5-1.5-18.8-66.5L305 100l40.5-11.2Q386 77.5 390 92.2q4 14.8-17 20.6-21 5.7-22.5 6zm722.5 33.7l4.5 10.5.5 2 .5 2v1l-.3.2-.2.3-7.5.5q-7.5.5-18 .8-10.5.2-12.3-4.8-1.7-5-5.7-10t-10.7-8.8q-6.8-3.7-17.3-3.7t-17.3 4.3q-6.7 4.2-12.2 12.7-5.5 8.5-8 19t-1.5 17.5q1 7 5.3 13.2 4.2 6.3 13.2 10.8 9 4.5 17 5t15-2.5l7-3 .2-.3.3-.2.3-.2.2-.3.2-.3.3-.2.3-.2.2-.3.2-.3.3-.2.5-1 .5-1 .3-.2.2-.3.2-.3.3-.2v-2l-.3-.2-.2-.3-1.5-.5-1.5-.5-1-.5q-1-.5-15-6.2l-14-5.8 5.2-12.5q5.3-12.5 5.6-13.5l.2-1 33 13.8q33 13.7 34 14.2l1 .5.2.3.3.2v1l-.5 1.5q-.5 1.5-2 5t-9 15.5q-7.5 12-14 17.5t-16.2 9.7q-9.8 4.3-21.3 4.8t-18.5-1q-7-1.5-19-7t-18-10.5q-6-5-11.2-11.7-5.3-6.8-9.3-16.8-4-10-4-25.5t3-24.5q3-9 9.5-18.5t14.2-15.7q7.8-6.3 18.3-10.3 10.5-4 25-4t26 4q11.5 4 19.3 9.3 7.7 5.2 14.2 12.2 6.5 7 11 17.5zM238 266.2l-1-.2.2-1q.3-1 5.3-13.5l5-12.5.5-1 .5-1 .3.2.2.3.2.3.3.2 2.7 2.2q2.8 2.3 6.3 2.8t5 0l1.5-.5.2-.3.3-.2.3-.2.2-.3.2-.3.3-.2.3-.2.2-.3.2-.3.3-.2.5-1 .5-1v-2.5q0-2.5-.5-4.5t-22.2-48L224 137l17-7.8q17-7.7 39.8 39.6Q303.5 216 305 222t.5 14.5q-1 8.5-5.5 15.5t-10.8 11.2q-6.2 4.3-14.2 6.8-8 2.5-16 2t-14-3q-6-2.5-7-2.8zM340 487l1 .5 1 .5 1 .5 1 .5 1 .5 1 .5 1 .5h2l-.2-.3-.3-.2-.3-.2-.2-.3-.2-.3-.3-.2-.5-1-1-2-.5-1-.5-1-.5-1-.3-1-.2-1h2l.2 1 .3 1 .5 1 .5 1 .5 1 .5 1 2.3 3.2q2.2 3.3 3.4 4 1.3.8 1.8 3.3t1.8 3.7q1.2 1.3 1.4 1.6l.3.2.3 1 .2 1h4v4l-1-.2-1-.3-.2-.3-.3-.2-.3-.2-.2-.3-.2-.3-.3-.2-.3-.2q-.2-.3-1.2-1.3t-1.8-.3q-.7.8-3 .8H352l-18.2 59.5q-18.3 59.5-18.8 61l-.5 1.5-.3.2-.2.3h-1l-1-.5q-1-.5-14.5-7t-13.7-8.8q-.3-2.2 11.7-37.7l12-35.5.5-1 .5-1 .5-1.5.5-1.5.3-1 .2-1h-2l-.2 1-.3 1-.3.2-.2.3-.2.3-.3.2-.3.2-.2.3-.2.3-.3.2-.3.2-.2.3-.2.3-.3.2-.3.2-.2.3-.2.3-.3.2-.5 1q-.5 1-26.8 29.8-26.2 28.7-37.7 23.4-11.5-5.2-4.3-46.7l7.3-41.5.5-2 .5-2v-2l-.3.2-.2.3-.2.3-.3.2-.5 1-.5 1-.3.2-.2.3-.2.3-.3.2-.5 1-.5 1-.3.2-.2.3-.2.3-.3.2-21.3 32.2Q195 569.5 190.5 568q-4.5-1.5-14-6t-10.5-5l-1-.5-1-.3-1-.2.2-1 .3-1 .3-.2.2-.3.2-.3.3-.2 38.7-56.5Q242 440 258.8 448q16.7 8 13.7 29t-7 45q-4 24 17.5 0t29.8-33.2q8.2-9.3 14.2-7.3 6 2 9 3.5l4 2zm719.5 27l1 1 .3.2.2.3 6.5-.5q6.5-.5 16-3t18-2q8.5.5 13.3 3.8 4.7 3.2 8.2 10.2 3.5 7 3 15.5t-5 15.5q-4.5 7-12.8 13.2-8.2 6.3-17.7 10.3-9.5 4-19 5.3-9.5 1.2-12.3-7.8-2.7-9-3.2-11l-.5-2-.3-1.5-.2-1.5 10-.8q10-.7 18-4.2t9.8-4.8q1.7-1.2 2-1.4l.2-.3.2-.3.3-.2.5-1 .5-1 .5-1 .5-1v-4l-.5-1-.5-1-.3-.2-.2-.3-.2-.3-.3-.2-.3-.2-.2-.3h-5q-5 0-15.5 3t-19 3q-8.5 0-13-2.5t-8.3-8.2q-3.7-5.8-4.2-13.8t2-13.5q2.5-5.5 8.5-11.5t16.3-11.2q10.2-5.3 20.2-7.6 10-2.2 13 9.3t-2 11.7q-5 .3-10.5 1.8t-11.5 5.5q-6 4-6.8 7.3-.7 3.2.3 4.2zm-42.5 95l.5 1v1l-.3.2-.2.3-1 .5q-1 .5-14.5 6l-13.5 5.5-.2.3-.3.2-.3-.2-.2-.3-.2-.3-.3-.2-.5-1q-.5-1-17.8-43.8L951 535.5l.2-.3.3-.2.3-.2.2-.3 13.5-5.5q13.5-5.5 14.5-5.8l1-.2 2.2 6q2.3 6 2.8 7.5l.5 1.5.5 1 .5 1 .5 1 .5 1 .5-3.5.5-3.5 3.5-8q3.5-8 8.8-12.2 5.2-4.3 11.2-6.3 6-2 10 12.7 4 14.8-3 16.6-7 1.7-11.2 5-4.3 3.2-6.3 7.7t-1.5 12q.5 7.5 8 26.5t8 20zm-316.2-74.2l.2-.3.2-.3.3-.2.3-.2.2-.3 1-.5 1-.5.2-.3.3-.2v-1l-.3-.2-.2-.3h-3l-.2.3-.3.2-.3.2-.2.3-1 .5q-1 .5-2 .5t.2-1.3q1.3-1.2-.4-1.4l-1.8-.3-.2.3-.3.2-.3.2-.2.3h-2l.2-.3.3-.2.3-.2.2-.3.2-.3.3-.2.3-.2.2-.3.2-.3.3-.2.3-.2q.2-.3 1.7-2.8l1.5-2.5 1.8-4.3q1.7-4.2 1-.2-.8 4 1.2 4.5t3.2-2.5q1.3-3 1.6.2.2 3.3 2.2 3.6 2 .2 3.2-3.8 1.3-4 1 1-.2 5 2.3 6.2 2.5 1.3-1.3 1-3.7-.2-4 .8-.2 1 6.8 3.8 7 2.7 9.2 5 2.3 2.2 2.3 11.2t-3 12.5q-3 3.5-7.3 5.3-4.2 1.7-9.7.7-5.5-1-9.3-4.7-3.7-3.8-4.7-6.3t-.5-8.5q.5-6 3.5-9.5t3.3-3.7zM492.2 667l-.2 1-1.5-.2q-1.5-.3-14.5-2.8t-12.8-7.8l.3-5.2v-4l-.3.2-.2.3-.2.3-.3.2-.3.2-.2.3-.2.3-.3.2-.3.2-.2.3-.2.3-.3.2-.3.2-.2.3-1 .5q-1 .5-6.5 3.5t-15 3.5q-9.5.5-17-2.5T408 649q-5-4.5-8.8-12.8-3.7-8.2-4.2-18.7t.5-16q1-5.5 4.5-14t8.8-14.7q5.2-6.3 12.2-9.8 7-3.5 18.5-3.5t19 3.5q7.5 3.5 10.7 7.8l3.3 4.2.3.2.2.3.2.3.3.2.5 1 .5 1 .5 1 .5 1 .3.2.2.3.2.3.3.2.5-4 .5-4 5.3-27.5q5.2-27.5 21-24.5 15.7 3 2.2 74t-13.8 72zM379.8 545.2l15.7 4.8-14 44.5q-14 44.5-14.3 45.5l-.2 1-1.5-.2q-1.5-.3-16-5L335 631l.2-1.5q.3-1.5 14.6-45.3 14.2-43.7 30-39zm573.2 36l3 8.8-2 .2q-2 .3-33 9.3l-31 9-1.5.3-1.5.2.2 1.5.3 1.5.5 1.5.5 1.5.5 1 .5 1 .3.2.2.3.2.3.3.2 3.3 3.2q3.2 3.3 9.2 4.3 6 1 12.2-1.3 6.3-2.2 9.8-5.7 3.5-3.5 4.2-6.5.8-3 9.3-2.2 8.5.7 13 1.2l4.5.5 1 .3 1 .2-.2 1-.3 1-.5 2-.5 2-.5 1q-.5 1-3 5.5t-9.2 9.7q-6.8 5.3-17.3 9.3-10.5 4-24 4T881 644q-8-3.5-13.8-9.2-5.7-5.8-9.7-15.3-4-9.5-4.5-20t2-17.5q2.5-7 7.2-13.8 4.8-6.7 13.3-12.2 8.5-5.5 19-8t19-1.5q8.5 1 16.5 5.5t14 12.5q6 8 9 16.7zm-188.2 46L737.5 586l-.3-.2-.2-.3-.2-.3-.3-.2-.5-1-.5-1v-2l.3-.2.2-.3 17.2-2.3q17.3-2.2 29.3 18.8t12.5 22l.5 1 .5 1 .5 1 .5 1 .5 1 .5 1 .5 1 .5-1 .5-1 .5-3 .5-3 .5-2.5q.5-2.5 5.5-24.5t22.3-25q17.2-3 3.2 48t-27 52.8q-13 1.7-40.2-39.6zm-28 40.3l.2 6.5-4 .2q-4 .3-17 1l-13 .8-.2-7q-.3-7-2.8-47.5l-2.5-40.5.3-.2.2-.3 16.5-1.3q16.5-1.2 19.3 40.3 2.7 41.5 3 48z" fill="#fefefe" fill-rule="evenodd" stroke="#fefefe" stroke-width=".5"/><path d="M764.8 627.2L737.5 586l-.3-.2-.2-.3-.2-.3-.3-.2-.5-1-.5-1v-2l.3-.2.2-.3 17.2-2.3q17.3-2.2 29.3 18.8t12.5 22l.5 1 .5 1 .5 1 .5 1 .5 1 .5 1 .5 1 .5-1 .5-1 .5-3 .5-3 .5-2.5q.5-2.5 5.5-24.5t22.3-25q17.2-3 3.2 48t-27 52.8q-13 1.7-40.2-39.6zM1017 609l.5 1v1l-.3.2-.2.3-1 .5q-1 .5-14.5 6l-13.5 5.5-.2.3-.3.2-.3-.2-.2-.3-.2-.3-.3-.2-.5-1q-.5-1-17.8-43.8L951 535.5l.2-.3.3-.2.3-.2.2-.3 13.5-5.5q13.5-5.5 14.5-5.8l1-.2 2.2 6q2.3 6 2.8 7.5l.5 1.5.5 1 .5 1 .5 1 .5 1 .5-3.5.5-3.5 3.5-8q3.5-8 8.8-12.2 5.2-4.3 11.2-6.3 6-2 10 12.7 4 14.8-3 16.6-7 1.7-11.2 5-4.3 3.2-6.3 7.7t-1.5 12q.5 7.5 8 26.5t8 20zM684.8 47.8l.2-.3h7.5q7.5 0 19 .3l11.5.2-.5 59.8q-.5 59.7 11.7 68.4 12.3 8.8 12.6 9l.2.3 1 .5 1 .5.2.3.3.2.3.2.2.3 1 .5 1 .5.5.3.5.2v.2q0 .3.5.6l.5.2h2v.2q0 .3 1 .6l1 .2v.2q0 .3.5.6l.5.2.8 1q.7 1 .7 1.5v.5l-.3.2q-.2.3-2.2.8t-1.2 1.2q.7.8 0 1.3l-.8.5-.5-.2-11.7-7-11.3-6.8-.3-.2-.2-.3-1-.5-1-.5-.2-.3-.3-.2-.3-.2-.2-.3-.2-.3-.3-.2-.3-.2-.2-.3-.2-.3-.3-.2-.3-.2-.2-.3-.2-.3-.3-.2v-2l.3.2.2.3.2.3.3.2.3.2.2.3 1 .5 1 .5.2.3.3.2.3.2.2.3.2.3.3.2.3.2.2.3 1 .5 2 1 1 .5.2.3.3.2.3.2.2.3 1 .5 1 .5.2.3.3.2.3.2.2.3 1 .5 1 .5.2.3.3.2v-2l-.3-.2-.2-.3-1-.5-1-.5-.2-.3-.3-.2-.3-.2-.2-.3-.2-.3-.3-.2-.3-.2-.2-.3-1-.5-1-.5-.2-.3q-.3-.2-7-5-6.8-4.7-12.3-5.2-5.5-.5-14 1t-23 6.5l-14.5 5-1 .5-1 .5-1 .5-1 .5v.5l-.5-.2q-.5-.3-11.5-5.8t-13.8-5.8q-2.7-.2-4.4-2.2-1.8-2-5.8-3.8l-4-1.7-.2-.3-.3-.2H619l-.2-.5-.3-.5H617v-1h.5v-1l-.3-1-.2-1 1 .2 1 .3 1 .5 1 .5 1 .5 1 .5 17.5 8.5q17.5 8.5 22 7.5t11.7-4.3q7.3-3.2 8.8-65.7 1.5-62.5 1.8-62.7zM745 190q0-1 1-1t1 1q0 1-1 1t-1-1z" fill="#060808" fill-rule="evenodd" stroke="#060808" stroke-width=".5"/><path d="M649 189.2l3-.2.8 11q.7 11 1.2 12.5l.5 1.5.5 1.5.5 1.5.5 1.5.5 1.5.5 1 .5 1v-4l-.5-5.5q-.5-5.5-.5-11.5v-6l.3-.2.2-.3h3l1.5.5 1.5.5 16.8 9.3q16.7 9.2 35.7 21.7 19 12.5 27 26.5t10.5 19.5q2.5 5.5 3 6.5l.5 1 .5 1.5.5 1.5.5 1.5.5 1.5.3.5.2.5 6 24.8q6 24.7 4.8 25.4-1.3.8-1 1.8.2 1 26.7 11.8 26.5 10.7 38 17.2t11.7 6.8l.3.2.3.2.2.3 1 .5 1 .5.2.3.3.2.3.2.2.3.2.3.3.2.3.2.2.3.2.3.3.2.3.2.2.3.2.3.3.2v1l-.3.2-.2.3-.2.3-.3.2-.3-.2-.2-.3-.2-.3-.3-.2-.3-.2-.2-.3-1-.5-1-.5-.2-.3-.3-.2-.3-.2-.2-.3-1-.5-1-.5-.2-.3q-.3-.2-12-6.4Q820 364.5 796 356l-24-8.5-1-.5q-1-.5-8.8-23.8-7.7-23.2-19.7-49.2-12-26-16-30.5t-21.7-15.3Q687 217.5 681 216.5l-6-1-.2.3-.3.2-1.5 2.5q-1.5 2.5-2 8.5l-.5 6-.3.2-.2.3h-4l-1-.5q-1-.5-4-2.5t-16-2q-13 0-29.5 5l-16.5 5-1.5.5-1.5.5-.2.3-.3.2v-17l.3-.5.2-.5 2.2-8.5q2.3-8.5 4.6-11.7 2.2-3.3 22.7-7.8t23.5-4.8z" fill="#fefefe" fill-rule="evenodd" stroke="#fefefe" stroke-width=".5"/><path d="M736.8 667.5l.2 6.5-4 .2q-4 .3-17 1l-13 .8-.2-7q-.3-7-2.8-47.5l-2.5-40.5.3-.2.2-.3 16.5-1.3q16.5-1.2 19.3 40.3 2.7 41.5 3 48zm-357-122.3l15.7 4.8-14 44.5q-14 44.5-14.3 45.5l-.2 1-1.5-.2q-1.5-.3-16-5L335 631l.2-1.5q.3-1.5 14.6-45.3 14.2-43.7 30-39z" fill="#060808" fill-rule="evenodd" stroke="#060808" stroke-width=".5"/><path d="M485.2 387.8l-.2-.3-.2-.3-.3-.2-.3-.2-.2-.3-.2-.3-.3-.2-.3-.2-.2-.3-.2-.3-.3-.2-.3-.2-.2-.3-.2-.3-.3-.2-.3-.2-.2-.3-.2-.3-.3-.2-.3-.2-.2-.3.2-.3.3-.2.3-.2.2-.3 1.5-.5 1.5-.5 42-11.3q42-11.2 43 0 1 11.3-37 20.6-38 9.2-42.2 3.7-4.3-5.5-4.6-5.7zM444 588q2-.5 9.5.5t12.3 5.7q4.7 4.8 5.2 13.8t-2 14.5q-2.5 5.5-6.2 8.3-3.8 2.7-11.3 3.2-7.5.5-12-1.5t-7.3-5.7q-2.7-3.8-3.2-11.3-.5-7.5 2-14t6.8-9.7q4.2-3.3 6.2-3.8z" fill="#fefefe" fill-rule="evenodd" stroke="#fefefe" stroke-width=".5"/><path d="M735.8 182.2l.2.3 1 .5 1 .5.2.3.3.2.3.2.2.3.2.3.3.2.3.2.2.3 1 .5 1 .5.2.3.3.2 2.3 1q2.2 1 2.2 2t-2 .2q-2-.7-2.2-1l-.3-.2-.3-.2-.2-.3-1-.5-1-.5-.2-.3-.3-.2-.3-.2-.2-.3-1-.5-1-.5-.2-.3-.3-.2-.3-.2-.2-.3-1-.5-2-1-1-.5-.2-.3-.3-.2-.3-.2-.2-.3-.2-.3-.3-.2-.3-.2-.2-.3-1-.5-1-.5-.2-.3-.3-.2-.3-.2-.2-.3-.2-.3-.3-.2v2l.3.2.2.3.2.3.3.2.3.2.2.3.2.3.3.2.3.2.2.3.2.3.3.2.3.2.2.3 1 .5 1 .5.2.3.3.2 11.3 6.8 11.7 7 .5.2v.5l1.5.3q1.5.2 1.7-.8.3-1 1.8 7t1.8 9l.2 1h-1q-1 0-2-6.5t-10.8-12q-9.7-5.5-10.7-5.5t10 17.5q11 17.5 11.5 19.5l.5 2h.5l.2 1 .3 1 .5 1.5.5 1.5.5 1.5.5 1.5.3 1 .2 1 1 .2 1 .3 1.5.5 1.5.5 1 .5 1 .5 1.5.5 1.5.5 1 .5 1 .5h2l.2-.3.3-.2.3-.2.2-.3.2-.3.3-.2v-7l-.3-1-.2-1 1 .2 1 .3 1 .5 1 .5.2.3.3.2.3.2.2.3 3.5 1.7q3.5 1.8 5.5 6.6 2 4.7 4 5l2 .2.2 1.5.3 1.5.3.2.2.3 1 .5 1 .5h2l-.2-.3-.3-.2-.5-1.5-.5-1.5-.5-1.5-.5-1.5-.5-1-.5-1-.3-1q-.2-1-2.2-1.8-2-.7-5.8-5.4l-3.7-4.8-.5-1-.5-1-.3-.2-.2-.3-.2-.3-.3-.2-.5-1-.5-1v-2l.3-.2.2-.3 1-.5 1-.5 3.5-.5 3.5-.5h3l-.2.3-.3.2-.3.2-.2.3.2.3.3.2 6.3 14q6.2 14 21.2 21.2 15 7.3 15.2 7.6l.3.2.3.2.2.3 1 .5 1 .5 1 .5 1 .5h2l.2-.3.3-.2v-4l-.5-2-.5-2-.5-1.5q-.5-1.5-4-8T830 235l-8.5-12-.3-.2-.2-.3-.2-.3-.3-.2-.3-.2-.2-.3-.2-.3-.3-.2-.3-.2-.2-.3-.2-.3-.3-.2-.3-.2-.2-.3.2-.3.3-.2.5-1.5.5-1.5.5-1 .5-1 .3.2.2.3.2.3.3.2.3.2.2.3.2.3.3.2.3.2.2.3.2.3.3.2.3.2.2.3.2.3.3.2.5 1 .5 1 8.5 13q8.5 13 13 22.5t5 10.5l.5 1 .5 1.5.5 1.5.5 1 .5 1 .3.5.2.5v.5l.2.3.3.2.5 1.5.5 1.5.5 1 .5 1 2.5 6.5q2.5 6.5 3 7.5l.5 1 .5 1.5.5 1.5.5 1.5.5 1.5.3.2.2.3h-2l-.2-.3-.3-.2-.3-.2-.2-.3-.2-.3-.3-.2-.3-.2-.2-.3-.2-.3-.3-.2-.3-.2-.2-.3-.2-.3-.3-.2-.3-.2-.2-.3-.2-.3-.3-.2-.3-.2q-.2-.3-9.7-5.8t-15-6.5l-5.5-1-1 .5-1 .5-.2.3-.3.2-.5 1-.5 1-.5 10q-.5 10 0 14l.5 4 .5 2.5.5 2.5v-28l.3-.2.2-.3.2-.3.3-.2.3-.2.2-.3 1.5-.5 1.5-.5 6.5 1q6.5 1 16.3 6.7 9.7 5.8 13.2 9.3 3.5 3.5 7 11.5t4 12q.5 4 .5 10v6l-.5-1.5-.5-1.5-.5-2-.5-2-.5-1.5-1.5-4.5q-1-3-6-11.5t-13.7-13.3l-8.8-4.7-1.5-.5-1.5-.5h-2l-1 .3-1 .2-.2 1-.3 1 3.5 20q3.5 20 4 22l.5 2 .5 1.5.5 1.5.3 1.5.2 1.5-4-.2-4-.3-1-.5q-1-.5-2.5-1l-4.5-1.5q-3-1-27-11.7-24-10.8-24.2-11.8-.3-1-1.8-1t-4.2-1.8q-2.8-1.7-8.3-19.4L761 287l-.2-1.5-.3-1.5-.5-1.5-.5-1.5-.5-1-.5-1-.5-1.5q-.5-1.5-2-5t-10.2-19.3q-8.8-15.7-17.3-21.7l-8.5-6-.2-.3-.3-.2-.3-.2-.2-.3-1-.5-1-.5-.2-.3-.3-.2-.3-.2-.2-.3-1-.5-1-.5-1-.5-1-.5-.2-.3-.3-.2-.3-.2-.2-.3h3l.2.3.3.2.3.2.2.3 1 .5 1 .5.2.3.3.2.3.2.2.3 1 .5 1 .5 1 .5 1 .5 5.5 3.5q5.5 3.5 7 4l1.5.5h3l.2-.3.3-.2v-5l-.5-1.5-.5-1.5-.5 1.5-.5 1.5-.3.2-.2.3h-1q-1 0-7-3.5l-6-3.5-1-.5-1-.5-.2-.3-.3-.2-.3-.2-.2-.3-1-.5-1-.5-1-.5-1-.5-.2-.3-.3-.2-.3-.2-.2-.3 1-.5 1-.5 2.5-.5 5-1 2.5-.5 2-.3 2-.2-.2-1.5-.3-1.5-.3-1-.2-1-1.5.2-1.5.3-2 .5-6 1.5-4 1-1.5.5-1.5.5-2.5.3-2.5.2v-2l1.5-.2 1.5-.3 6.5-1.5q6.5-1.5 8.5-2l2-.5.2-.3.3-.2v-2l-.3-.2-.2-.3-.2-.3-.3-.2-.5-1q-.5-1-6.8-11.2-6.2-10.3-13.7-9.3-7.5 1-22 6l-14.5 5-.2.3-.3.2-.3-.2-.2-.3-1-.5-1-.5-1.5-.5-1.5-.5-1-.3-1-.2v-2.5l1-.5 1-.5 1-.5 1-.5 14.5-5q14.5-5 23-6.5t14-1q5.5.5 12.3 5.2 6.7 4.8 7 5zM664 187l1-.5 2.5-1q2.5-1 7-2t-2 2q-6.5 3-8 2.5t-.5-1zm133.2 54.5q.3-1.5 1 0 .8 1.5-.2 1.5t-.8-1.5z" fill="#fdfdfd" fill-rule="evenodd" stroke="#fdfdfd" stroke-width=".5"/><path d="M700.8 534.8l.2-.3.2-.3.3-.2.3-.2.2-.3 1-.5 1-.5.2-.3.3-.2v-1l-.3-.2-.2-.3h-3l-.2.3-.3.2-.3.2-.2.3-1 .5q-1 .5-2 .5t.2-1.3q1.3-1.2-.4-1.4l-1.8-.3-.2.3-.3.2-.3.2-.2.3h-2l.2-.3.3-.2.3-.2.2-.3.2-.3.3-.2.3-.2.2-.3.2-.3.3-.2.3-.2q.2-.3 1.7-2.8l1.5-2.5 1.8-4.3q1.7-4.2 1-.2-.8 4 1.2 4.5t3.2-2.5q1.3-3 1.6.2.2 3.3 2.2 3.6 2 .2 3.2-3.8 1.3-4 1 1-.2 5 2.3 6.2 2.5 1.3-1.3 1-3.7-.2-4 .8-.2 1 6.8 3.8 7 2.7 9.2 5 2.3 2.2 2.3 11.2t-3 12.5q-3 3.5-7.3 5.3-4.2 1.7-9.7.7-5.5-1-9.3-4.7-3.7-3.8-4.7-6.3t-.5-8.5q.5-6 3.5-9.5t3.3-3.7z" fill="#060808" fill-rule="evenodd" stroke="#060808" stroke-width=".5"/><path d="M592.2 91.5L592 77l11.5.8q11.5.7 14.3 2.4 2.7 1.8 4.2 5.8t.5 10q-1 6-4.7 8.8-3.8 2.7-9.8 3.7-6 1-10.5 1.3l-4.5.2-.2-2q-.3-2-.6-16.5zM427.5 290l-1.5.5-1 .5-1 .5-1.5.3-1.5.2.8-11q.7-11 4.4-14.8 3.8-3.7 20.8-11.2 17-7.5 17.8-7.2.7.2-2.3 3.2t-4.5 10q-1.5 7-1.8 12.5-.2 5.5-13.7 10.7-13.5 5.3-15 5.8zM888 589l-2 .5-2 .3-2 .2.2-4.5.3-4.5 1.7-4q1.8-4 8.3-6.8 6.5-2.7 12-1.7 5.5 1 9.3 4.7 3.7 3.8 4 5.6.2 1.7-13.8 5.7t-16 4.5z" fill="#fefefe" fill-rule="evenodd" stroke="#fefefe" stroke-width=".5"/><path d="M692.8 370h.2l1.8 7.5q1.7 7.5 2.2 8.5l.5 1 .5 1 .5 1 .3.2.2.3.2.3.3.2.3.2.2.3.2.3.3.2.3.2.2.3.2.3.3.2.3.2.2.3h2l-.2-.3-.3-.2-.3-.2-.2-.3-.2-.3-.3-.2-.3-.2-.2-.3-.2-.3-.3-.2-.3-.2-.2-.3-.2-.3-.3-.2-.5-1-.5-1-.5-1q-.5-1-1-3l-.5-2v-5l.3.2.2.3 2 .3 2 .2-.2 1.5-.3 1.5-.3.2-.2.3-1 .5-1 .5 1.2 2.3q1.3 2.2 1.6 3.2l.2 1 1 .2 1 .3h12l.2-.3.3-.2v-1l-.3-.2-.2-.3-.2-.3-.3-.2-.3-.2-.2-.3-.2-.3-.3-.2-.3-.2-.2-.3-.2-.3q-.3-.2-2-6.4-1.8-6.3-2.6-9.6-.7-3.2-2.7-3.2h-2l-.3-1.5-.2-1.5 2.2.5q2.3.5 5.6-5.3 3.2-5.7 4.7-6.2l1.5-.5h6l.2.3.3.2.3.2.2.3.2.3.3.2.3.2.2.3.2.3.3.2 1.5 5q1.5 5 1.5 9v9l.3.2.2.3h3l1-.5 1-.5.2-.3.3-.2.3-.2.2-.3.2-.3.3-.2v-3q0-3-1.7-4l-1.8-1 .2-1 .3-1 .3-.2.2-.3.2-.3.3-.2.3-.2.2-.3.2-.3.3-.2.3-.2.2-.3.2-.3.3-.2.3-.2.2-.3.2-.3.3-.2.3-.2.2-.3.2-.3.3-.2.5 2.5.5 2.5-1.5 13.5q-1.5 13.5-6 23.5t-8.2 13.2q-3.8 3.3-4.8 3.8l-1 .5-3.5.5-3.5.5.2.3.3.2.3.2.2.3h6l1.5-.5 1.5-.5 1-.5q1-.5 1.8-1.2.7-.8 5.2-6.8t8-16q3.5-10 3.5-29.5t-3-27.5q-3-8-7.7-12.8-4.8-4.7-9.3-5.2-4.5-.5-8 1.5l-3.5 2-.2.3-.3.2-.3.2-.2.3-.2.3-.3.2-.3.2-.2.3-.2.3-.3.2-.3.2-.2.3-.2.3-.3.2-.5 1-.5 1h-1v-2l.3-.2.2-.3.2-.3.3-.2.5-1 .5-1 .3-.2.2-.3.2-.3.3-.2.5-1 .5-1 .3-.2.2-.3 5.5-3.5q5.5-3.5 10-3t7.7 2.8q3.3 2.2 7.8 11.2t6 17.5q1.5 8.5 1 22.5t-4 25.5q-3.5 11.5-7.8 18.3-4.2 6.7-8.2 9.2-4 2.5-10 2t-10.2-4.2q-4.3-3.8-4-5 .2-1.3-.6-2-.7-.8-3.2-6.3t-2.2-6.7q.2-1.3-.3-6-.5-4.8-1.5-4.8t-1.2-9q-.3-9 0-9zm11.4 46q-.2-1 2.3 0t2.5 2q0 1-2.2 0-2.3-1-2.6-2z" fill="#fcfcfc" fill-rule="evenodd" stroke="#fcfcfc" stroke-width=".5"/><path d="M610.8 191.5l.2 1.5 12.5-2.8q12.5-2.7 15-3.2l2.5-.5 2.5-.5 2.5-.5-.2-.3-.3-.2-.3-.2-.2-.3-1-.5-1-.5-1-.5-1-.5-1-.5-1-.5-1-.5q-1-.5-15-6.8-14-6.2-14.2-8.7-.3-2.5 2-1.5l2.2 1v.2q0 .3.5.6l.5.2.5-.2 1-.6.5-.2h1v1h1.5l.3.5.2.5.2.5q.3.5.6 0l.2-.5h.5l.3.2.2.3 4 1.7q4 1.8 5.8 3.8 1.7 2 4.4 2.2 2.8.3 13.8 5.8t11.5 5.8l.5.2 2-.2 2-.3 5-2q5-2 7-2t-5 3.5q-7 3.5-6.8 3.8l.6.4.2.3 1 .5 1 .5.2.3.3.2.3-.2.2-.3 14.5-5q14.5-5 22-6t13.7 9.3q6.3 10.2 6.8 11.2l.5 1 .3.2.2.3.2.3.3.2v2l-.3.2-.2.3-2 .5q-2 .5-8.5 2l-6.5 1.5-1.5.3-1.5.2v2l2.5-.2 2.5-.3 1.5-.5 1.5-.5 4-1 6-1.5 2-.5 1.5-.3 1.5-.2.2 1 .3 1 .3 1.5.2 1.5-2 .2-2 .3-2.5.5-5 1-2.5.5-1 .5-1 .5.2.3.3.2.3.2.2.3 1 .5 1 .5 1 .5 1 .5.2.3.3.2.3.2.2.3 1 .5 1 .5 6 3.5q6 3.5 7 3.5h1l.2-.3.3-.2.5-1.5.5-1.5.5 1.5.5 1.5v5l-.3.2-.2.3h-3l-1.5-.5q-1.5-.5-7-4l-5.5-3.5-1-.5-1-.5-1-.5-1-.5-.2-.3-.3-.2-.3-.2-.2-.3-1-.5-1-.5-.2-.3-.3-.2-.3 1-.2 1 1 .2 1 .3.2.3.3.2.3.2.2.3 1 .5 1 .5.2.3.3.2.3.2.2.3 8.5 6q8.5 6 17.3 21.7 8.7 15.8 10.2 19.3t2 5l.5 1.5.5 1 .5 1 .5 1.5.5 1.5.3 1.5.2 1.5h-2l-.2-.5-.3-.5-.5-1.5-.5-1.5-.5-1.5-.5-1.5-.5-1q-.5-1-3-6.5T742.5 253q-8-14-27-26.5t-35.7-21.7l-16.8-9.3-1.5-.5-1.5-.5h-3l-.2.3-.3.2v6q0 6 .5 11.5l.5 5.5v4l-.5-1-.5-1-.5-1.5-.5-1.5-.5-1.5-.5-1.5-.5-1.5q-.5-1.5-1.2-12.5l-.8-11-3 .2q-3 .3-23.5 4.8t-22.7 7.8q-2.3 3.2-4.6 11.7L596 222h-2v-2l-1 .2-1 .3-3 .5-3 .5h-2l-1-.5-1-.5.2-.3.3-.2.3-1 .2-1h1q1 0 .8-1.5-.3-1.5-1-.7-.8.7-2.8.2l-2-.5-.2-.3-.3-.2-.3-.2-.2-.3.2-.3.3-.2.3-.2.2-.3.2-.3.3-.2h1.5q1.5 0 1.2-1.8-.2-1.7-.2-3.2 0-1.5 1.5-1.5t2.5-.5l1-.5 3-.5 3-.5-.2-.3-.3-.2-.3-.2-.2-.3-.2-.3-.3-.2-.3-.2-.2-.3-2.5-.5-5-1-2.5-.5 1-.3 1-.2h.5l.3-.5.2-.5h1q1 0 .5-2t1.7-2.5q2.3-.5 2.6-.7l.4-.6.3-.2v-4l-.5 1q-.5 1-2.8-.2-2.2-1.3-1-2 1.3-.8.6-1.3-.8-.5-1-2.5l-.3-2-.3.2-.2.3-.2.3-.3.2-.3-.2-.2-.3-.2-.3-.3-.2-.3-.2-.2-.3 2-.5 2-.5h5l4.2 2.3q4.3 2.2 5.3 3.7t1.5 3l.5 1.5.3 1.5.2 1.5h4l-.2-1.5-.3-1.5-.5-2.5-.5-2.5-.5-2.5q-.5-2.5-2-8t-4.8-6.7q-3.2-1.3-56.7 17.7t-55.7 22.7l-2.3 3.8-.3 1.5-.2 1.5h-2v-2h-2l.2-1.5.3-1.5.5-1.5.5-1.5.5-1 .5-1 .5-1 .5-1 .3-.2.2-.3.2-.3.3-.2.3-.2.2-.3.2-.3.3-.2.3-.2.2-.3.2-.3.3-.2.3-.2.2-.3-1-.3-1-.2 8.5-4.2q8.5-4.3 52.5-19.8t49-15q5 .5 7.8 4.2 2.7 3.8 5.2 14.3t2.8 12zm-22.6 9.3q-.2-.3 0-.6.3-.2.3.3t-.3.3zm-1 13q-.2-.3 0-.6.3-.2.3.3t-.3.3zm124 6l-.2-.3.2-.3q.3-.2.3.3v.5l-.3-.2z" fill="#0d0f0f" fill-rule="evenodd" stroke="#0d0f0f" stroke-width=".5"/><path d="M606 183.5l.5 2.5.5 2.5.5 2.5.3 1.5.2 1.5h-4l-.2-1.5-.3-1.5-.5-1.5q-.5-1.5-1.5-3t-5.3-3.7l-4.2-2.3h-5l-2 .5-2 .5.2.3.3.2.3.2.2.3.2.3.3.2.3-.2.2-.3.2-.3.3-.2.3 2q.2 2 1 2.5.7.5-.6 1.3-1.2.7 1 2 2.3 1.2 2.8.2l.5-1v4l-.3.2-.4.6q-.3.2-2.6.7-2.2.5-2 2.5.3 2-1 2.5l-1.2.5.2-1q.3-1 .3-1.5t-5.7-.5q-5.8 0-5.6-2.5.3-2.5-1.4 0L569 197l2-4.8q2-4.7 5.5-8.2 3.5-3.5 8.5-5t2-1.5h-3l-1.5.5q-1.5.5-5 2.5t-6.3 6.3q-2.7 4.2-4.2 11.2l-1.5 7-.5-2-.5-2-.5-2.5q-.5-2.5-1-4.5l-.5-2-.5-1-.5-1-.3-1-.2-1-2 .2-2 .3-.2.3-.3.2-.5 1.5-.5 1.5-.3.2-.2.3.2.3.3.2 3 19.5q3 19.5 3.5 26t.8 12.5l.2 6-1.5.2-1.5.3-.2.3-.3.2-.5-1.5-.5-1.5-.5-9q-.5-9-3.5-29l-3-20-.5-1.5-.5-1.5-.3-.2-.2-.3-.2-.3-.3-.2-.3-.2-.2-.3h-3l-.2.3-.3.2-.3.2-.2.3-.2.3-.3.2v5l3 21.5q3 21.5 3.3 31l.2 9.5-1.5.2-1.5.3-.2.3-.3.2-.5-8q-.5-8-3.5-29.5l-3-21.5-.5-2-.5-2-.3-1-.2-1-1-.2-1-.3h-2l-.2.3-.3.2-.3.2-.2.3-.2.3-.3.2 3 27q3 27 3 33v6l-.3.2-.2.3-1.5.3-1.5.2-.2-3.5-.3-3.5-.5-7.5q-.5-7.5-3.5-26.5l-3-19-.5-1.5-.5-1.5-.3-.2-.2-.3h-4l-.2.3-.3.2-.3.2-.2.3-.2.3-.3.2v3l3 20.5q3 20.5 3.5 28.5l.5 8v5l-.3.2-.2.3-2 .3-2 .2-.2-7.5q-.3-7.5-3.3-28.5l-3-21-.5-2-.5-2-.5-1-.5-1-.3-.2-.2-.3h-3l-.2.3-.3.2-.3.2-.2.3-.2.3-.3.2v3q0 3 .5 5.5l.5 2.5v3l-.5-1-.5-1-.5-1-.5-1-.3-.2q-.2-.3-1.2-1.3t-6.5-1.7l-5.5-.8-.2.5-.3.5h-.5l-.5.2-.5.3-.2.3-.3.2h-.5l-.2.5-.3.5h-.5l-.2.5-.3.5h-1v-2l.3-.2.2-.3 1-.5 1-.5.5-.5q.5-.5 2-1l1.5-.5 1-.5 1-.5h-4l-1 .5-1 .5-1 .5-1 .5-.2.3-.3.2-.3.2q-.2.3-1.4 2l-1.3 1.8-.3.2-.2.3-.2.3-.3.2-.5 1-.5 1-.5 1-.5 1-.3.2-.2.3-.2.3-.3.2v-5l.3-1 .2-1 .2-1.5.3-1.5 2.3-3.8q2.2-3.7 55.7-22.7t56.7-17.7q3.3 1.2 4.8 6.7t2 8z" fill="#fafafa" fill-rule="evenodd" stroke="#fafafa" stroke-width=".5"/><path d="M615.5 164.8l.5.2h1v1h1.5l.3.5.2.5h1v.2q0 .3-3-.4l-3-.8-.5-.2q-.5-.3-.5-.6v-.2l-2.2-1q-2.3-1-2 1.5.2 2.5 14.2 8.7 14 6.3 15 6.8l1 .5 1 .5 1 .5 1 .5 1 .5 1 .5 1 .5.2.3.3.2.3.2.2.3-2.5.5-2.5.5-2.5.5q-2.5.5-15 3.2L611 193l-.2-1.5q-.3-1.5-2.8-12t-5.2-14.3q-2.8-3.7-7.8-4.2t-49 15q-44 15.5-52.5 19.8L485 200l-1 .2-1 .3-.2.3-.3.2-.3.2-.2.3-.2.3-.3.2-.3.2-.2.3-.2.3-.3.2-.3.2-.2.3-.2.3-.3.2-.3.2-.2.3-.2.3-.3.2-.3.2-.2.3-1.8 7.3q-1.7 7.2-1.2 18.2t1 25l.5 14v3l-.3-.2-.2-.3-.2-.3-.3-.2-.5-3.5-.5-3.5-2-18q-2-18-1.5-27.5t4.8-15.3q4.2-5.7 10.7-9.7 6.5-4 52.5-20t55.5-15.5q9.5.5 15 3t6 2.8z" fill="#f8f8f8" fill-rule="evenodd" stroke="#f8f8f8" stroke-width=".5"/><path d="M762 216h1l2.8 4.5q2.7 4.5 2.7 5.5v1l-.3.2-.2.3.2.3.3.2.3.2.2.3.2.3.3.2.3.2.2.3h-4l-2.5-.3-2.5-.2v2h-.5l-.5-2q-.5-2-11.5-19.5t-10-17.5q1 0 10.7 5.5 9.8 5.5 10.8 12t2 6.5z" fill="#0b0d0d" fill-rule="evenodd" stroke="#0b0d0d" stroke-width=".5"/><path d="M583.8 198l.2 1-.5.2q-.5.3-.5.6v.2l-1 .2-1 .3 3.8.3q3.7.2 3.4.4-.2.3 1.3.8l1.5.5.2.3.3.2.3.2.2.3.2.3.3.2.3.2.2.3-3 .5-3 .5-1 .5q-1 .5-2.5.5t-1.3 3.3q.3 3.2-1.2 3.2h-1.5l-.3.2-.2.3-.2.3-.3.2-.3.2-.2.3.2.3.3.2.3.2.2.3 2 .5q2 .5 4.5-1.2 2.5-1.8 2.3-.8l-.3 1-.3.2-.2.3-1 .3q-1 .2-1 1.2t-1 1h-1l-.2 1-.3 1-.3.2-.2.3 1 .5 1 .5h2l2-.5q2-.5.5-1t1-.5h2.5l1 .3 1 .2v2l-.2.5-.3.5-.3 6.5q-.2 6.5-3.2 6.7-3 .3-5.2 3-2.3 2.8-3 7.3-.8 4.5-2.3 4.7l-1.5.3-1.5.5-1.5.5-1.5.5-1.5.5-.2.3-.3.2h-1l-.5-5q-.5-5-1.8-22.2-1.2-17.3-.2-23.6l1-6.2 1.8-2.5q1.7-2.5 2.4-.7.8 1.7 4.8 2.2 4 .5 4.8.8.7.2 1 1.2zm-2.6 11.8q-.2-.3 0-.6.3-.2.3.3t-.3.3zm-13 3q-.2-.3 0-.6.3-.2.3.3t-.3.3z" fill="#f9f9f9" fill-rule="evenodd" stroke="#f9f9f9" stroke-width=".5"/><path d="M776.5 417l-2.5-.5-.2-.3-.3-.2-.7-4.5q-.8-4.5 6.2-2.7 7 1.7 6.8 5.4-.3 3.8-3.6 3.6-3.2-.3-5.7-.8z" fill="#fcfcfc" fill-rule="evenodd" stroke="#fcfcfc" stroke-width=".5"/><path d="M486.2 230.5l1.8 1.5 7 .8q7 .7 7.5 1.2t-1 1q-1.5.5.5 1t3-2.8q1-3.2 2.5-3.2t1.5 1.5q0 1.5 1 1.5t1.2 1.5q.3 1.5 1.3-1.5t2.5 9.5q1.5 12.5 1.2 21.3-.2 8.7-4.4 10.4-4.3 1.8-6-2-1.8-3.7-4.3-4-2.5-.2-2.5.8t1 1.2q1 .3-1.5.8t-2.5.8v.2l-.2.5q-.3.5-.8 1.5t-.5-1v-2l.3-.2.2-.3.2-.3.3-.2.5-1 .5-1 .3-.2.2-.3.2-.3.3-.2.3-.2.2-.3 1-.5 1-.5 1-.5 1-.5h-4l-1 .5-1 .5-.2.3-.3.2-.3.2-.2.3-.2.3-.3.2-.5 1-.5 1-.5 1q-.5 1-.8 6l-.2 5-1 .2-1 .3-1.5.5-1.5.5-.2.3-.3.2-.3-.2-.2-.3-.2-.3-.3-.2-.5-15q-.5-15-.5-26.5t1.7-10z" fill="#f9f9f9" fill-rule="evenodd" stroke="#f9f9f9" stroke-width=".5"/><path d="M582.5 178l1.5-.5h3q3 0-2 1.5t-8.5 5q-3.5 3.5-5.5 8.2l-2 4.8-.5 7.8q-.5 7.7-1.3 6-.7-1.8.8 15.7t2 22.5l.5 5h.5v.5l1 .3 1 .2v.2q0 .3-38 13L497 281l-.2-.5q-.3-.5-.6-4.5l-.2-4v-.2q0-.3.5-1.6.5-1.2 4-1.4 3.5-.3 5.3 3.4 1.7 3.8 6 2 4.2-1.7 4.4-10.4.3-8.8-1.2-21.3t-2.5-9.5q-1 3-1.3 1.5-.2-1.5-1.2-1.5t-1-1.5q0-1.5-1.5-1.5t-2.5 3.2q-1 3.3-3 2.8t-.5-1q1.5-.5 1-1t-7.5-1.2l-7-.8 1.2-1q1.3-1 1-3-.2-2 3.3-2.2l3.5-.3 1.5-.5 1.5-.5.2-.3.3-.2v-1l-.3-.2-.2-.3-.2-.3-.3-.2-.3-.2-.2-.3-1.5-.3q-1.5-.2-1.7-1.2-.3-1-2.6-1.8l-2.2-.7v-.5h.5l.3-.5.2-.5h.5l.3-.5.2-.5h.5l.3-.2.2-.3.5-.3.5-.2h.5l.3-.5.2-.5 5.5.8q5.5.7 6.5 1.7t1.2 1.3l.3.2.5 1 .5 1 .5 1 .5 1v-3l-.5-2.5q-.5-2.5-.5-5.5v-3l.3-.2.2-.3.2-.3.3-.2.3-.2.2-.3h3l.2.3.3.2.5 1 .5 1 .5 2 .5 2 3 21q3 21 3.3 28.5l.2 7.5 2-.2 2-.3.2-.3.3-.2v-5l-.5-8q-.5-8-3.5-28.5l-3-20.5v-3l.3-.2.2-.3.2-.3.3-.2.3-.2.2-.3h4l.2.3.3.2.5 1.5.5 1.5 3 19q3 19 3.5 26.5l.5 7.5.3 3.5.2 3.5 1.5-.2 1.5-.3.2-.3.3-.2v-6q0-6-3-33l-3-27 .3-.2.2-.3.2-.3.3-.2.3-.2.2-.3h2l1 .3 1 .2.2 1 .3 1 .5 2 .5 2 3 21.5q3 21.5 3.5 29.5l.5 8 .3-.2.2-.3 1.5-.3 1.5-.2-.2-9.5q-.3-9.5-3.3-31l-3-21.5v-5l.3-.2.2-.3.2-.3.3-.2.3-.2.2-.3h3l.2.3.3.2.3.2.2.3.2.3.3.2.5 1.5.5 1.5 3 20q3 20 3.5 29l.5 9 .5 1.5.5 1.5.3-.2.2-.3 1.5-.3 1.5-.2-.2-6q-.3-6-.8-12.5t-3.5-26l-3-19.5-.3-.2-.2-.3.2-.3.3-.2.5-1.5.5-1.5.3-.2.2-.3 2-.3 2-.2.2 1 .3 1 .5 1 .5 1 .5 2q.5 2 1 4.5l.5 2.5.5 2 .5 2 1.5-7q1.5-7 4.2-11.2 2.8-4.3 6.3-6.3t5-2.5zm-88.3 38.8q-.2-.3 0-.6.3-.2.3.3t-.3.3zM722 419l-1 .5-1.5.5-1.5.5h-6l-1-.5q-1-.5-1-.8v-.2l4-.2 4-.3 1-.5q1-.5 4.8-3.8 3.7-3.2 8.2-13.2 4.5-10 6-23.5l1.5-13.5-.5-2.5-.5-2.5-.3.2-.2.3-.2.3-.3.2-.3.2-.2.3-.2.3-.3.2-.3.2-.2.3-.2.3-.3.2-.3.2-.2.3-.2.3-.3.2-.3.2-.2.3-.2.3-.3.2-.3 1-.2 1 1.8 1q1.7 1 1.7 4v3l-.3.2-.2.3-.2.3-.3.2-.3.2-.2.3-1 .5-1 .5h-3l-.2-.3-.3-.2v-9q0-4-1.5-9l-1.5-5-.3-.2-.2-.3-.2-.3-.3-.2-.3-.2-.2-.3-.2-.3-.3-.2-.3-.2-.2-.3h-6l-1.5.5q-1.5.5-4.7 6.2-3.3 5.8-5.6 5.3l-2.2-.5.2 1.5.3 1.5h2q2 0 2.7 3.2.8 3.3 2.6 9.6 1.7 6.2 2 6.4l.2.3.2.3.3.2.3.2.2.3.2.3.3.2.3.2.2.3.2.3.3.2v1l-.3.2-.2.3h-12l-1-.3-1-.2-.2-1q-.3-1-1.6-3.2l-1.2-2.3 1-.5 1-.5.2-.3.3-.2.3-1.5.2-1.5-2-.2-2-.3-.2-.3-.3-.2v5l.5 2q.5 2 1 3l.5 1 .5 1 .5 1 .3.2.2.3.2.3.3.2.3.2.2.3.2.3.3.2.3.2.2.3.2.3.3.2.3.2.2.3h-2l-.2-.3-.3-.2-.3-.2-.2-.3-.2-.3-.3-.2-.3-.2-.2-.3-.2-.3-.3-.2-.3-.2-.2-.3-.2-.3-.3-.2-.5-1-.5-1-.5-1q-.5-1-2.2-8.5L693 370h.2q.3 0 1.3-7t3.5-14q2.5-7 3.2-10.8.8-3.7 1.8-6.4l1-2.8v-1l.5-.2q.5-.3.7-.6l.3-.2.3-.2.2-.3.2-.3.3-.2.3-.2.2-.3.2-.3.3-.2.3-.2.2-.3.2-.3.3-.2.3-.2.2-.3 3.5-2q3.5-2 8-1.5t9.3 5.2q4.7 4.8 7.7 12.8t3 27.5q0 19.5-3.5 29.5t-8 16q-4.5 6-5.2 6.8-.8.7-1.8 1.2z" fill="#0b0d0e" fill-rule="evenodd" stroke="#0b0d0e" stroke-width=".5"/><path d="M881.5 484.5H879l1.5-.5 1.5-.5-3-.5q-3-.5-3.2-.8-.3-.2-1.8-5.7t-3-8q-1.5-2.5-.8-3.3.8-.7 1.3-1.4.5-.8 3.5-2l3-1.3 2-.5 2-.5-3.5-.5-3.5-.5-.2-.3-.3-.2-.3-.2-.2-.3-.2-.3-.3-.2-.3-1q-.2-1 2.3-1.2 2.5-.3-.5-.6l-3-.2v-2.5q0-2.5 1.5-2.5t1.3-1q-.3-1-1.6-1.5-1.2-.5-1-4 .3-3.5 2.3-9 2-5.5 4.7-6.7l2.8-1.3-.2-.3-.3-.2v-2l.3-.2.2-.3-3.5-1q-3.5-1-2.5-1.5t0-.8q-1-.2.5-5.4 1.5-5.3 4.5-8.3 3-3 8-4.3 5-1.2 5-.2t1.8 1.5q1.7.5 4.2 6t3.5 18q1 12.5-.5 22t-2 9q-.5-.5-5.5 10.5t-8.3 13.8q-3.2 2.7-5.7 2.7zM875 436q0-1 1.5-.2 1.5.7 0 1-1.5.2-1.5-.8z" fill="#bdbebf" fill-rule="evenodd" stroke="#bdbebf" stroke-width=".5"/></svg>